<svg width="29" height="22" viewBox="0 0 29 22" fill="none" xmlns="http://www.w3.org/2000/svg">
<path d="M22.1432 13.5715V9.71436H18.2861V7.14293H22.1432V3.28578H24.7147V7.14293H28.5718V9.71436H24.7147V13.5715H22.1432ZM10.5718 11.0001C9.15755 11.0001 7.94684 10.4965 6.9397 9.48936C5.93255 8.48221 5.42898 7.2715 5.42898 5.85721C5.42898 4.44293 5.93255 3.23221 6.9397 2.22507C7.94684 1.21793 9.15755 0.714355 10.5718 0.714355C11.9861 0.714355 13.1968 1.21793 14.204 2.22507C15.2111 3.23221 15.7147 4.44293 15.7147 5.85721C15.7147 7.2715 15.2111 8.48221 14.204 9.48936C13.1968 10.4965 11.9861 11.0001 10.5718 11.0001ZM0.286133 21.2858V17.6858C0.286133 16.9572 0.473633 16.2876 0.848632 15.6769C1.22363 15.0661 1.72185 14.6001 2.34327 14.2786C3.67184 13.6144 5.02184 13.1161 6.39327 12.784C7.7647 12.4519 9.15755 12.2858 10.5718 12.2858C11.9861 12.2858 13.379 12.4519 14.7504 12.784C16.1218 13.1161 17.4718 13.6144 18.8004 14.2786C19.4218 14.6001 19.92 15.0661 20.295 15.6769C20.67 16.2876 20.8575 16.9572 20.8575 17.6858V21.2858H0.286133ZM2.85756 18.7144H18.2861V17.6858C18.2861 17.4501 18.2272 17.2358 18.1093 17.0429C17.9915 16.8501 17.8361 16.7001 17.6433 16.5929C16.4861 16.0144 15.3183 15.5804 14.1397 15.2911C12.9611 15.0019 11.7718 14.8572 10.5718 14.8572C9.37184 14.8572 8.18255 15.0019 7.00398 15.2911C5.82541 15.5804 4.65756 16.0144 3.50041 16.5929C3.30756 16.7001 3.1522 16.8501 3.03434 17.0429C2.91649 17.2358 2.85756 17.4501 2.85756 17.6858V18.7144ZM10.5718 8.42864C11.279 8.42864 11.8843 8.17686 12.3879 7.67328C12.8915 7.16971 13.1433 6.56436 13.1433 5.85721C13.1433 5.15007 12.8915 4.54471 12.3879 4.04114C11.8843 3.53757 11.279 3.28578 10.5718 3.28578C9.86469 3.28578 9.25934 3.53757 8.75577 4.04114C8.25219 4.54471 8.00041 5.15007 8.00041 5.85721C8.00041 6.56436 8.25219 7.16971 8.75577 7.67328C9.25934 8.17686 9.86469 8.42864 10.5718 8.42864Z" fill="#04314D"/>
</svg>
