<svg width="48" height="48" viewBox="0 0 48 48" fill="none" xmlns="http://www.w3.org/2000/svg">
<path d="M36 24.0028C36 22.4266 35.6896 20.8658 35.0866 19.4095C34.4835 17.9533 33.5996 16.6301 32.4854 15.5155C31.3711 14.401 30.0482 13.5169 28.5924 12.9137C27.1365 12.3105 25.5761 12 24.0002 12V24.0028H36Z" fill="#04314D"/>
<path d="M35.052 28.6719C34.2886 30.4777 33.0946 32.0689 31.5743 33.3065C30.0541 34.5441 28.2539 35.3904 26.3311 35.7713C24.4084 36.1522 22.4216 36.0562 20.5445 35.4916C18.6674 34.9271 16.9571 33.9112 15.5632 32.5328C14.1693 31.1544 13.1342 29.4554 12.5484 27.5844C11.9626 25.7134 11.844 23.7273 12.2028 21.7998C12.5616 19.8724 13.3871 18.0622 14.6069 16.5275C15.8267 14.9928 17.4038 13.7804 19.2003 12.9962M36 24.0028C36 22.4266 35.6896 20.8658 35.0866 19.4095C34.4835 17.9533 33.5996 16.6301 32.4854 15.5155C31.3711 14.401 30.0482 13.5169 28.5924 12.9137C27.1365 12.3105 25.5761 12 24.0002 12V24.0028H36Z" stroke="#04314D" stroke-width="2" stroke-linecap="round" stroke-linejoin="round"/>
</svg>
