<svg width="48" height="48" viewBox="0 0 48 48" fill="none" xmlns="http://www.w3.org/2000/svg">
<path d="M32.9737 36.1055H14.0263C13.3316 36.1055 12.7368 35.8581 12.2421 35.3634C11.7474 34.8687 11.5 34.2739 11.5 33.5792V15.895C11.5 15.2002 11.7474 14.6055 12.2421 14.1108C12.7368 13.616 13.3316 13.3687 14.0263 13.3687H32.9737C33.6684 13.3687 34.2632 13.616 34.7579 14.1108C35.2526 14.6055 35.5 15.2002 35.5 15.895V33.5792C35.5 34.2739 35.2526 34.8687 34.7579 35.3634C34.2632 35.8581 33.6684 36.1055 32.9737 36.1055ZM14.0263 19.6844H32.9737V15.895H14.0263V19.6844ZM17.8158 22.2108H14.0263V33.5792H17.8158V22.2108ZM29.1842 22.2108V33.5792H32.9737V22.2108H29.1842ZM26.6579 22.2108H20.3421V33.5792H26.6579V22.2108Z" fill="#04314D"/>
</svg>
