<svg width="24" height="26" viewBox="0 0 24 26" fill="none" xmlns="http://www.w3.org/2000/svg">
<path d="M1.2002 5.8H3.6002M3.6002 5.8H22.8002M3.6002 5.8V22.6C3.6002 23.2365 3.85305 23.847 4.30314 24.2971C4.75323 24.7471 5.36368 25 6.0002 25H18.0002C18.6367 25 19.2472 24.7471 19.6973 24.2971C20.1473 23.847 20.4002 23.2365 20.4002 22.6V5.8M7.2002 5.8V3.4C7.2002 2.76348 7.45305 2.15303 7.90314 1.70294C8.35323 1.25286 8.96368 1 9.6002 1H14.4002C15.0367 1 15.6472 1.25286 16.0973 1.70294C16.5473 2.15303 16.8002 2.76348 16.8002 3.4V5.8M9.6002 11.8V19M14.4002 11.8V19" stroke="#F53D4C" stroke-width="2" stroke-linecap="round" stroke-linejoin="round"/>
</svg>
