<svg width="48" height="48" viewBox="0 0 48 48" fill="none" xmlns="http://www.w3.org/2000/svg">
<path d="M24 29.4C25.5 29.4 26.775 28.875 27.825 27.825C28.875 26.775 29.4 25.5 29.4 24C29.4 22.5 28.875 21.225 27.825 20.175C26.775 19.125 25.5 18.6 24 18.6C22.5 18.6 21.225 19.125 20.175 20.175C19.125 21.225 18.6 22.5 18.6 24C18.6 25.5 19.125 26.775 20.175 27.825C21.225 28.875 22.5 29.4 24 29.4ZM24 25.2C23.66 25.2 23.375 25.085 23.145 24.855C22.915 24.625 22.8 24.34 22.8 24C22.8 23.66 22.915 23.375 23.145 23.145C23.375 22.915 23.66 22.8 24 22.8C24.34 22.8 24.625 22.915 24.855 23.145C25.085 23.375 25.2 23.66 25.2 24C25.2 24.34 25.085 24.625 24.855 24.855C24.625 25.085 24.34 25.2 24 25.2ZM24 36C22.34 36 20.78 35.685 19.32 35.055C17.86 34.425 16.59 33.57 15.51 32.49C14.43 31.41 13.575 30.14 12.945 28.68C12.315 27.22 12 25.66 12 24C12 22.34 12.315 20.78 12.945 19.32C13.575 17.86 14.43 16.59 15.51 15.51C16.59 14.43 17.86 13.575 19.32 12.945C20.78 12.315 22.34 12 24 12C25.66 12 27.22 12.315 28.68 12.945C30.14 13.575 31.41 14.43 32.49 15.51C33.57 16.59 34.425 17.86 35.055 19.32C35.685 20.78 36 22.34 36 24C36 25.66 35.685 27.22 35.055 28.68C34.425 30.14 33.57 31.41 32.49 32.49C31.41 33.57 30.14 34.425 28.68 35.055C27.22 35.685 25.66 36 24 36ZM24 33.6C26.68 33.6 28.95 32.67 30.81 30.81C32.67 28.95 33.6 26.68 33.6 24C33.6 21.32 32.67 19.05 30.81 17.19C28.95 15.33 26.68 14.4 24 14.4C21.32 14.4 19.05 15.33 17.19 17.19C15.33 19.05 14.4 21.32 14.4 24C14.4 26.68 15.33 28.95 17.19 30.81C19.05 32.67 21.32 33.6 24 33.6Z" fill="#04314D"/>
</svg>
