<svg width="48" height="48" viewBox="0 0 48 48" fill="none" xmlns="http://www.w3.org/2000/svg">
<path d="M13 32.4V30H15.625V21.6C15.625 19.94 16.1719 18.465 17.2656 17.175C18.3594 15.885 19.7812 15.04 21.5312 14.64V13.8C21.5312 13.3 21.7227 12.875 22.1055 12.525C22.4883 12.175 22.9531 12 23.5 12C24.0469 12 24.5117 12.175 24.8945 12.525C25.2773 12.875 25.4688 13.3 25.4688 13.8V14.64C27.2188 15.04 28.6406 15.885 29.7344 17.175C30.8281 18.465 31.375 19.94 31.375 21.6V30H34V32.4H13ZM23.5 36C22.7781 36 22.1602 35.765 21.6461 35.295C21.132 34.825 20.875 34.26 20.875 33.6H26.125C26.125 34.26 25.868 34.825 25.3539 35.295C24.8398 35.765 24.2219 36 23.5 36ZM18.25 30H28.75V21.6C28.75 20.28 28.2359 19.15 27.2078 18.21C26.1797 17.27 24.9438 16.8 23.5 16.8C22.0562 16.8 20.8203 17.27 19.7922 18.21C18.7641 19.15 18.25 20.28 18.25 21.6V30Z" fill="#04314D"/>
</svg>
