<svg width="48" height="48" viewBox="0 0 48 48" fill="none" xmlns="http://www.w3.org/2000/svg">
<path d="M24 24C22.35 24 20.9375 23.4125 19.7625 22.2375C18.5875 21.0625 18 19.65 18 18C18 16.35 18.5875 14.9375 19.7625 13.7625C20.9375 12.5875 22.35 12 24 12C25.65 12 27.0625 12.5875 28.2375 13.7625C29.4125 14.9375 30 16.35 30 18C30 19.65 29.4125 21.0625 28.2375 22.2375C27.0625 23.4125 25.65 24 24 24ZM12 36V31.8C12 30.95 12.2187 30.1687 12.6562 29.4562C13.0938 28.7437 13.675 28.2 14.4 27.825C15.95 27.05 17.525 26.4688 19.125 26.0812C20.725 25.6937 22.35 25.5 24 25.5C25.65 25.5 27.275 25.6937 28.875 26.0812C30.475 26.4688 32.05 27.05 33.6 27.825C34.325 28.2 34.9062 28.7437 35.3438 29.4562C35.7812 30.1687 36 30.95 36 31.8V36H12ZM15 33H33V31.8C33 31.525 32.9312 31.275 32.7938 31.05C32.6562 30.825 32.475 30.65 32.25 30.525C30.9 29.85 29.5375 29.3438 28.1625 29.0063C26.7875 28.6688 25.4 28.5 24 28.5C22.6 28.5 21.2125 28.6688 19.8375 29.0063C18.4625 29.3438 17.1 29.85 15.75 30.525C15.525 30.65 15.3438 30.825 15.2063 31.05C15.0688 31.275 15 31.525 15 31.8V33ZM24 21C24.825 21 25.5313 20.7063 26.1188 20.1187C26.7063 19.5312 27 18.825 27 18C27 17.175 26.7063 16.4688 26.1188 15.8813C25.5313 15.2938 24.825 15 24 15C23.175 15 22.4688 15.2938 21.8813 15.8813C21.2937 16.4688 21 17.175 21 18C21 18.825 21.2937 19.5312 21.8813 20.1187C22.4688 20.7063 23.175 21 24 21Z" fill="#04314D"/>
</svg>
