<svg width="48" height="48" viewBox="0 0 48 48" fill="none" xmlns="http://www.w3.org/2000/svg">
<path d="M21.6 26.4H26.4V24H21.6V26.4ZM21.6 22.8H31.2V20.4H21.6V22.8ZM21.6 19.2H31.2V16.8H21.6V19.2ZM19.2 31.2C18.54 31.2 17.975 30.965 17.505 30.495C17.035 30.025 16.8 29.46 16.8 28.8V14.4C16.8 13.74 17.035 13.175 17.505 12.705C17.975 12.235 18.54 12 19.2 12H33.6C34.26 12 34.825 12.235 35.295 12.705C35.765 13.175 36 13.74 36 14.4V28.8C36 29.46 35.765 30.025 35.295 30.495C34.825 30.965 34.26 31.2 33.6 31.2H19.2ZM19.2 28.8H33.6V14.4H19.2V28.8ZM14.4 36C13.74 36 13.175 35.765 12.705 35.295C12.235 34.825 12 34.26 12 33.6V16.8H14.4V33.6H31.2V36H14.4Z" fill="#04314D"/>
</svg>
